<svg width="133" height="19" viewBox="0 0 133 19" fill="none" xmlns="http://www.w3.org/2000/svg">
<path d="M11.816 15.024C15.752 15.024 18.248 14.784 19.448 12.984L21.464 16.512C18.56 17.928 16.16 18.264 11.36 18.264C3.512 18.264 0.272 14.256 0.272 9.6C0.272 4.032 4.712 0.935999 11.36 0.935999C15.32 0.935999 17.744 1.08 20.984 2.04L18.848 5.976C17.504 4.512 15.368 4.176 11.816 4.176C7.976 4.176 4.568 5.64 4.568 9.552C4.568 12.12 6.128 15.024 11.816 15.024ZM28.7038 14.448C28.7038 15.432 29.2558 16.704 29.8318 18H23.5198C24.0958 16.704 24.6478 15.432 24.6478 14.448V4.752C24.6478 3.768 24.0958 2.472 23.5198 1.2H29.8318C29.2558 2.472 28.7038 3.768 28.7038 4.752V14.448ZM37.0631 14.448C37.0631 15.432 37.5911 16.704 38.1671 18H32.2151C32.7911 16.704 33.3431 15.432 33.3431 14.448V4.752C33.3431 3.768 32.7911 2.472 32.2151 1.2H39.3191L49.2071 13.128V4.752C49.2071 3.768 48.6551 2.472 48.0791 1.2H54.0311C53.4791 2.472 52.9271 3.768 52.9271 4.752V18H48.0791L37.0631 4.728V14.448ZM76.8506 18H56.4026C56.9786 16.704 57.5306 15.432 57.5306 14.448V4.752C57.5306 3.768 56.9786 2.472 56.4026 1.2H76.1306L75.4106 5.568C74.1386 4.992 72.8426 4.44 71.8586 4.44H61.5866V7.872H69.9626C70.9466 7.872 72.2426 7.56 73.5146 6.984V12C72.2426 11.424 70.9466 11.112 69.9626 11.112H61.5866V14.76H72.5786C73.5626 14.76 74.8586 14.208 76.1306 13.632L76.2986 14.76L76.8506 18ZM80.1946 14.784C80.5066 11.16 80.8426 7.2 81.1546 3.576C80.9386 2.832 80.6026 2.016 80.2186 1.2H87.6106L92.3386 12.264L97.0426 1.2H104.411C104.027 2.016 103.691 2.832 103.475 3.576C103.787 7.2 104.123 11.16 104.411 14.784C104.555 15.72 105.203 16.872 105.707 18H99.4426C99.9706 16.8 100.355 15.696 100.403 14.736L99.5626 4.704L94.4746 16.656C94.5226 17.208 94.6186 17.664 94.7866 18H89.5546C89.7226 17.664 89.8186 17.208 89.8666 16.656L84.7546 4.728L83.9146 14.76C83.9626 15.696 84.3466 16.8 84.8746 18H78.9226C79.4266 16.872 80.0746 15.72 80.1946 14.784ZM113.558 18H107.246C108.182 16.824 108.854 15.744 109.238 14.76L112.814 4.224C112.982 3.312 112.958 2.088 112.718 1.2C126.566 1.2 112.718 1.2 126.566 1.2C126.326 2.088 126.302 3.312 126.47 4.224L130.046 14.784C130.43 15.744 131.102 16.824 132.038 18H125.726C126.134 17.04 126.086 15.96 125.918 15.168L125.462 13.704C124.214 13.536 122.318 13.32 120.758 13.32H118.526C116.966 13.32 115.07 13.536 113.822 13.704L113.366 15.168C113.198 15.96 113.15 17.064 113.558 18ZM116.942 4.2C116.222 6.24 115.55 8.4 114.926 10.368C116.03 10.512 117.374 10.608 118.526 10.608H120.758C121.91 10.608 123.254 10.512 124.358 10.368C123.686 8.256 123.062 6.264 122.342 4.2C121.862 4.176 121.382 4.152 120.878 4.152H118.406C117.902 4.152 117.422 4.176 116.942 4.2Z" fill="white"/>
</svg>
